<svg xmlns="http://www.w3.org/2000/svg" width="1600" height="520" viewBox="0 0 1600 520" role="img" aria-label="Oracle Knowledge demo banner">
  <rect width="1600" height="520" fill="#F8F6F3"/>
  <rect x="0" y="0" width="1600" height="18" fill="#C74634"/>
  <circle cx="1240" cy="190" r="210" fill="#312D2A" opacity=".08"/>
  <circle cx="1370" cy="275" r="180" fill="#C74634" opacity=".10"/>
  <path d="M1060 130h260c58 0 105 47 105 105s-47 105-105 105h-260c-58 0-105-47-105-105s47-105 105-105zm0 52c-29 0-53 24-53 53s24 53 53 53h260c29 0 53-24 53-53s-24-53-53-53h-260z" fill="#C74634"/>
  <text x="96" y="190" font-family="Arial, Helvetica, sans-serif" font-size="86" font-weight="700" fill="#312D2A" letter-spacing="0">Oracle Knowledge</text>
  <text x="100" y="255" font-family="Arial, Helvetica, sans-serif" font-size="30" fill="#5F5753">Experience hub demo for governed knowledge, search, analytics, and service delivery</text>
  <rect x="100" y="324" width="205" height="42" rx="3" fill="#C74634"/>
  <text x="124" y="352" font-family="Arial, Helvetica, sans-serif" font-size="18" font-weight="700" fill="#FFFFFF">GitBook first draft</text>
</svg>
